En el futuro, los viajes por el tiempo se volverán una realidad, pero serán ilegales y estarán sólo disponibles en el mercado negro. Cuando la mafia quiere deshacerse de alguien que les estorba, lo envían 30 años en el pasado, donde un asesino a sueldo como Joe ya lo espera para matarlo. Joe se está haciendo rico y tiene una buena vida, hasta que un día la mafia decide que es hora de atar todos los cabos y envía al futuro Joe para que sea asesinado por él mismo en su juventud.


Format                                   : Matroska
Format version                           : Version 4 / Version 2
File size                                : 3.90 GiB
Duration                                 : 1h 58mn
Overall bit rate                         : 4 697 Kbps
Movie name                               : Looper 2012 By 3Li
Encoded date                             : UTC 2013-02-03 03:25:05
Writing application                      : mkvmerge v6.0.0 ('Coming Up For Air') built on Jan 20 2013 09:52:00
Writing library                          : libebml v1.3.0 + libmatroska v1.4.0

Video
ID                                       : 1
Format                                   : AVC
Format/Info                              : Advanced Video Codec
Format profile                           : High@L4.1
Format settings, CABAC                   : Yes
Format settings, ReFrames                : 6 frames
Codec ID                                 : V_MPEG4/ISO/AVC
Duration                                 : 1h 58mn
Bit rate                                 : 4 504 Kbps
Width                                    : 1 280 pixels
Height                                   : 544 pixels
Display aspect ratio                     : 2.35:1
Frame rate mode                          : Constant
Frame rate                               : 23.976 fps
Color space                              : YUV
Chroma subsampling                       : 4:2:0
Bit depth                                : 8 bits
Scan type                                : Progressive
Bits/(Pixel*Frame)                       : 0.270
Stream size                              : 3.66 GiB (94%)
Title                                    : Looper 2012 By 3Li
Writing library                          : x264 core 125 r2200 999b753
Encoding settings                        : cabac=1 / ref=6 / deblock=1:-3:-3 / analyse=0x3:0x113 / me=umh / subme=9 / psy=1 / psy_rd=1.00:0.00 / mixed_ref=1 / me_range=20 / chroma_me=1 / trellis=1 / 8x8dct=1 / cqm=0 / deadzone=21,11 / fast_pskip=0 / chroma_qp_offset=-2 / threads=3 / lookahead_threads=1 / sliced_threads=0 / nr=0 / decimate=0 / interlaced=0 / bluray_compat=0 / constrained_intra=0 / bframes=3 / b_pyramid=2 / b_adapt=2 / b_bias=0 / direct=1 / weightb=1 / open_gop=0 / weightp=2 / keyint=240 / keyint_min=23 / scenecut=40 / intra_refresh=0 / rc_lookahead=40 / rc=2pass / mbtree=1 / bitrate=4504 / ratetol=1.0 / qcomp=0.60 / qpmin=0 / qpmax=69 / qpstep=4 / cplxblur=20.0 / qblur=0.5 / ip_ratio=1.40 / aq=1:1.00
Language                                 : English
Default                                  : Yes
Forced                                   : No

Audio
ID                                       : 2
Format                                   : AC-3
Format/Info                              : Audio Coding 3
Mode extension                           : CM (complete main)
Format settings, Endianness              : Big
Codec ID                                 : A_AC3
Duration                                 : 1h 58mn
Bit rate mode                            : Constant
Bit rate                                 : 192 Kbps
Channel(s)                               : 2 channels
Channel positions                        : Front: L R
Sampling rate                            : 48.0 KHz
Bit depth                                : 16 bits
Compression mode                         : Lossy
Stream size                              : 163 MiB (4%)
Title                                    : Español Latino
Language                                 : Spanish
Default                                  : Yes
Forced                                   : No

Menu
00:00:00.000                             : en:00:00:00.000
00:07:27.447                             : en:00:07:27.447
00:13:31.686                             : en:00:13:31.686
00:21:22.490                             : en:00:21:22.490
00:26:48.106                             : en:00:26:48.106
00:31:51.201                             : en:00:31:51.201
00:41:28.403                             : en:00:41:28.403
00:49:33.429                             : en:00:49:33.429
00:54:10.414                             : en:00:54:10.414
01:00:35.006                             : en:01:00:35.006
01:08:09.919                             : en:01:08:09.919
01:15:23.352                             : en:01:15:23.352
01:23:57.741                             : en:01:23:57.741
01:34:25.869                             : en:01:34:25.869
01:41:04.433                             : en:01:41:04.433
01:46:29.383                             : en:01:46:29.383